<svg width="32" height="32" viewBox="0 0 32 32" fill="none" xmlns="http://www.w3.org/2000/svg">
<path fill-rule="evenodd" clip-rule="evenodd" d="M0.053833 23.6922C0.053833 22.928 0.667842 22.3086 1.42526 22.3086H12.9466C13.704 22.3086 14.318 22.928 14.318 23.6922C14.318 24.4563 13.704 25.0757 12.9466 25.0757H1.42526C0.667842 25.0757 0.053833 24.4563 0.053833 23.6922Z" fill="#212121"/>
<path fill-rule="evenodd" clip-rule="evenodd" d="M16.714 5.81179C16.714 5.04766 17.328 4.42822 18.0854 4.42822H29.6067C30.3641 4.42822 30.9782 5.04766 30.9782 5.81179C30.9782 6.57591 30.3641 7.19535 29.6067 7.19535H18.0854C17.328 7.19535 16.714 6.57591 16.714 5.81179Z" fill="#212121"/>
<path fill-rule="evenodd" clip-rule="evenodd" d="M0 5.71182C0 2.54819 2.55822 0 5.69261 0C8.82699 0 11.3852 2.54819 11.3852 5.71182C11.3852 8.87544 8.82699 11.4236 5.69261 11.4236C2.55822 11.4236 0 8.87544 0 5.71182ZM5.69261 2.76713C4.05448 2.76713 2.74286 4.09511 2.74286 5.71182C2.74286 7.32852 4.05448 8.65651 5.69261 8.65651C7.33073 8.65651 8.64235 7.32852 8.64235 5.71182C8.64235 4.09511 7.33073 2.76713 5.69261 2.76713Z" fill="#212121"/>
<path fill-rule="evenodd" clip-rule="evenodd" d="M20.6147 23.6195C20.6147 20.4556 23.1733 17.9077 26.3088 17.9077C29.4438 17.9077 32 20.4565 32 23.6195C32 26.7825 29.4438 29.3313 26.3088 29.3313C23.1733 29.3313 20.6147 26.7835 20.6147 23.6195ZM26.3088 20.6748C24.6689 20.6748 23.3576 22.0031 23.3576 23.6195C23.3576 25.2359 24.6689 26.5642 26.3088 26.5642C27.9464 26.5642 29.2571 25.2369 29.2571 23.6195C29.2571 22.0022 27.9464 20.6748 26.3088 20.6748Z" fill="#212121"/>
</svg>
